<svg width="20" height="20" viewBox="0 0 20 20" fill="none" xmlns="http://www.w3.org/2000/svg">
<path d="M11.246 1.70044C12.9358 0.218259 15.5349 0.268207 17.164 1.84936C18.8084 3.44542 18.8596 6.01296 17.3178 7.66967L17.164 7.82715L9.63345 15.1416C8.61074 16.1342 6.96354 16.1342 5.94083 15.1416C4.90282 14.1338 4.90276 12.4885 5.94083 11.4807L10.8456 6.70898L10.9176 6.6455C11.2898 6.35043 11.8328 6.37977 12.1713 6.72729C12.5323 7.09842 12.5241 7.69196 12.153 8.05298L7.24698 12.8247C6.96741 13.096 6.96745 13.525 7.24698 13.7964C7.54225 14.083 8.03203 14.083 8.3273 13.7964L15.8578 6.48193L16.0226 6.30493C16.793 5.39001 16.7379 4.04876 15.8578 3.19458C14.963 2.32636 13.5375 2.27216 12.5766 3.03222L12.391 3.19458L4.6359 10.7227C3.03832 12.2732 3.03832 14.7751 4.6359 16.3257L4.7897 16.4673C6.412 17.8895 8.92627 17.8426 10.4892 16.3257L10.4916 16.3232L15.6503 11.3611L15.7223 11.2976C16.0962 11.0048 16.6383 11.0372 16.9748 11.3867C17.3337 11.7599 17.3223 12.3534 16.9491 12.7124L11.7917 17.6746L11.7904 17.6733C9.52264 19.8711 5.9042 19.9396 3.55313 17.8772L3.32974 17.6709C0.973385 15.3839 0.973453 11.6645 3.32974 9.37744L11.0849 1.84936L11.246 1.70044Z" fill="currentColor"/>
</svg>
