<svg width="16" height="16" viewBox="0 0 16 16" fill="none" xmlns="http://www.w3.org/2000/svg">
    <path d="M8 0C12.4183 0 16 3.58172 16 8C16 12.4183 12.4183 16 8 16C3.58172 16 0 12.4183 0 8C0 3.58172 3.58172 0 8 0ZM10.9043 4.00488C10.7839 4.01627 10.671 4.04577 10.5762 4.07422C10.3755 4.13445 10.1255 4.23475 9.83594 4.35059L6.78906 5.56934C6.57315 5.6555 6.38362 5.73151 6.2207 5.84863C6.07738 5.95171 5.95073 6.07737 5.84766 6.2207C5.73103 6.38305 5.65511 6.57413 5.56934 6.78906L4.35059 9.83594C4.2347 10.1256 4.13444 10.3764 4.07422 10.5771C4.04582 10.6718 4.01626 10.7842 4.00488 10.9043C3.99346 11.0256 4.00042 11.154 4.04199 11.2803C4.14792 11.6007 4.39963 11.8521 4.71973 11.958C4.8433 11.9982 4.9734 12.0068 5.09668 11.9951C5.21719 11.9837 5.33077 11.954 5.4248 11.9258C5.59365 11.8751 5.79752 11.7958 6.03027 11.7031L9.21094 10.4316C9.42709 10.3454 9.61723 10.2686 9.78027 10.1514C9.92308 10.0485 10.0485 9.92306 10.1514 9.78027C10.2686 9.61723 10.3454 9.4271 10.4316 9.21094L10.4365 9.19727L11.7031 6.03027C11.7959 5.7972 11.875 5.59283 11.9258 5.42383C11.954 5.32981 11.9837 5.21715 11.9951 5.09668C12.0068 4.97346 11.9991 4.84715 11.959 4.72363C11.8532 4.40346 11.6007 4.14799 11.2803 4.04199C11.1539 4.00034 11.0256 3.99345 10.9043 4.00488ZM8 7C8.55229 7 9 7.44772 9 8C9 8.55229 8.55229 9 8 9C7.44772 9 7 8.55229 7 8C7 7.44772 7.44772 7 8 7Z" fill="currentColor"/>
</svg>
