<svg width="20" height="20" viewBox="0 0 20 20" fill="none" xmlns="http://www.w3.org/2000/svg">
<path fill-rule="evenodd" clip-rule="evenodd" d="M5.62584 1.25C7.91151 1.25 9.40791 2.84693 9.99974 3.9707C10.5916 2.84693 12.0885 1.25 14.3741 1.25C17.4626 1.25 19.5613 3.91192 19.9242 6.42109C20.4706 9.75002 18.1143 13.7276 11.0533 18.3654L11.0133 18.3919C10.8718 18.4862 10.6372 18.6427 10.36 18.7084C10.2426 18.7361 10.1213 18.75 10 18.75C9.87871 18.75 9.75743 18.7361 9.64005 18.7084C9.36281 18.6427 9.12818 18.4862 8.98672 18.3919L8.94669 18.3654C1.88571 13.7276 -0.470685 9.75002 0.0756919 6.4211C0.438721 3.91192 2.53744 1.25 5.62584 1.25ZM9.45175 16.448C9.64612 16.5794 9.7433 16.645 9.85279 16.6716C9.90007 16.6831 9.95003 16.6888 10 16.6888C10.05 16.6888 10.0999 16.6831 10.1472 16.6716C10.2567 16.645 10.3539 16.5794 10.5482 16.448C17.0938 12.0231 18.4133 8.76529 18.0734 6.71798C17.8073 4.85378 16.2802 3.12562 14.3742 3.12562C12.4521 3.12562 11.2784 4.5952 10.8038 5.6079C10.6548 5.92561 10.3509 6.16631 10 6.16631C9.64913 6.16631 9.34516 5.92561 9.19624 5.6079C8.72156 4.5952 7.5479 3.12562 5.62584 3.12562C3.71984 3.12562 2.19275 4.85378 1.92661 6.71798C1.58669 8.76529 2.90615 12.0231 9.45175 16.448Z" fill="currentColor"/>
</svg>
