<svg width="20" height="20" viewBox="0 0 20 20" fill="none" xmlns="http://www.w3.org/2000/svg">
<path d="M10.3125 5.0335e-07C10.8303 5.0335e-07 11.25 0.419734 11.25 0.937501C11.25 1.45527 10.8303 1.875 10.3125 1.875H6.68701C5.88447 1.875 5.33881 1.87596 4.91699 1.9104C4.60846 1.93561 4.41273 1.97609 4.27246 2.02637L4.14917 2.07886C3.84049 2.23614 3.58225 2.4761 3.4021 2.76978L3.32886 2.89917C3.25427 3.04577 3.19394 3.25647 3.1604 3.66699C3.12596 4.08881 3.125 4.63447 3.125 5.43701V14.563C3.125 15.3655 3.12596 15.9112 3.1604 16.333C3.19394 16.7435 3.25427 16.9542 3.32886 17.1008L3.4021 17.2302C3.58225 17.5239 3.84049 17.7639 4.14917 17.9211L4.27246 17.9736C4.41273 18.0239 4.60846 18.0644 4.91699 18.0896C5.33881 18.124 5.88447 18.125 6.68701 18.125H10.3125C10.8303 18.125 11.25 18.5447 11.25 19.0625C11.25 19.5803 10.8303 20 10.3125 20H6.68701C5.91537 20 5.28023 20.0006 4.7644 19.9585C4.30317 19.9208 3.87408 19.8453 3.46924 19.6716L3.29712 19.5911C2.67976 19.2764 2.16322 18.7979 1.80298 18.2104L1.65894 17.9529C1.4271 17.4979 1.33456 17.0126 1.2915 16.4856C1.24939 15.9698 1.25 15.3346 1.25 14.563V5.43701C1.25 4.66537 1.24939 4.03023 1.2915 3.5144C1.33456 2.98744 1.4271 2.50212 1.65894 2.04712L1.80298 1.78955C2.16322 1.20208 2.67976 0.723594 3.29712 0.408936L3.46924 0.32837C3.87408 0.154674 4.30317 0.0791885 4.7644 0.0415044C5.28023 -0.00060752 5.91537 1.97639e-07 6.68701 5.0335e-07H10.3125ZM13.0872 5.27466C13.4533 4.90854 14.0467 4.90854 14.4128 5.27466L18.4753 9.33716C18.8186 9.68041 18.8404 10.2238 18.54 10.592L18.4753 10.6628L14.4128 14.7253L14.342 14.79C13.9738 15.0904 13.4304 15.0686 13.0872 14.7253C12.7439 14.3821 12.7221 13.8387 13.0225 13.4705L13.0872 13.3997L15.5493 10.9375H7.1875C6.66973 10.9375 6.25 10.5178 6.25 10C6.25 9.48223 6.66973 9.0625 7.1875 9.0625H15.5493L13.0872 6.60034C12.721 6.23423 12.721 5.64078 13.0872 5.27466Z" fill="#2C2D30"/>
</svg>
