<svg width="32" height="32" viewBox="0 0 32 32" fill="none" xmlns="http://www.w3.org/2000/svg">
    <path d="M23.5869 1.3002C25.5636 -0.485931 28.6154 -0.42617 30.5205 1.47891C32.4869 3.4454 32.487 6.63352 30.5205 8.59998L10.294 28.8274C9.71582 29.4055 9.01651 29.8462 8.24904 30.1194L7.91505 30.2269L1.91212 31.9417C1.38844 32.0912 0.824597 31.9449 0.43946 31.5599C0.054362 31.1748 -0.0918511 30.6109 0.0576238 30.0872L1.77345 24.0843L1.87989 23.7503C2.1531 22.9828 2.59382 22.2835 3.17189 21.7054L23.3994 1.47891L23.5869 1.3002ZM5.29396 23.8275C5.03132 24.0902 4.83024 24.4075 4.70607 24.7562L4.65724 24.9085L3.6836 28.3148L7.09083 27.3421L7.24318 27.2933C7.59189 27.1691 7.90917 26.968 8.17189 26.7054L25.378 9.49841L22.5 6.62049L5.29396 23.8275ZM28.3994 3.6C27.6045 2.80509 26.3155 2.80508 25.5205 3.6L24.6211 4.49941L27.4991 7.37733L28.3994 6.47889C29.1943 5.68401 29.1943 4.39492 28.3994 3.6Z" fill="currentColor"/>
</svg>