<svg width="32" height="32" viewBox="0 0 32 32" fill="none" xmlns="http://www.w3.org/2000/svg">
    <path d="M15.9981 18.4004C17.6002 18.3999 19.2515 18.5051 20.6953 18.7324C21.1815 18.809 21.6447 18.8988 22.0742 19.0039C24.3309 19.5563 26.5013 20.9004 27.9102 22.5215C29.2302 24.0408 30.437 26.5767 28.8262 28.9004L28.5782 29.2344C27.2856 30.8318 25.3247 31.446 23.3887 31.7246L22.6426 31.8164C20.8568 32.0029 18.7644 32.0013 16.5469 32H15.4492C13.2317 32.0013 11.1393 32.003 9.35355 31.8164L8.60745 31.7246C6.67176 31.446 4.71235 30.8314 3.41995 29.2344L3.16995 28.9004C1.66039 26.7222 2.62752 24.3573 3.84183 22.8184L4.08792 22.5215C5.49674 20.9004 7.66916 19.5564 9.92581 19.0039C10.1406 18.9517 10.3635 18.9024 10.5938 18.8574L11.3028 18.7344C12.7448 18.5081 14.3957 18.4009 15.9981 18.4004ZM14.8887 21.4199C14.1521 21.4448 13.4292 21.4943 12.75 21.5684L11.7676 21.6973C11.3473 21.7632 10.9684 21.8388 10.6348 21.9199L10.6328 21.918C9.17913 22.275 7.75406 23.0995 6.75394 24.0664L6.35159 24.4883C5.90227 25.0054 5.56835 25.5975 5.4473 26.1055C5.34827 26.5216 5.38929 26.8344 5.63675 27.1914L5.86526 27.4766C6.45671 28.1104 7.44317 28.5247 9.03519 28.7539L9.68558 28.834C11.2533 28.9969 13.1708 29.0013 15.4492 29H16.5489L18.4141 28.9961C20.1899 28.9837 21.7028 28.9349 22.961 28.7539L23.6075 28.6445C25.0306 28.3615 25.8782 27.8882 26.3614 27.1914L26.4453 27.0586C26.6168 26.7542 26.6355 26.4692 26.5489 26.1055C26.4581 25.7247 26.2479 25.2967 25.959 24.8887L25.6446 24.4883C24.7723 23.4849 23.42 22.5805 21.9825 22.0977L21.3614 21.918C21.195 21.8773 21.0171 21.8379 20.8282 21.8008L20.2285 21.6953C18.9746 21.4979 17.4854 21.4 16 21.4004L14.8887 21.4199ZM20.1992 8.40039C20.1991 5.8733 18.4128 4.04095 16.4024 3.82227L15.9981 3.80078C13.8295 3.80116 11.7991 5.70555 11.7989 8.40039C11.7989 10.0863 12.6205 11.5088 13.7774 12.3027L14.0274 12.4609C14.6204 12.8082 15.2897 12.9977 15.9981 12.998C16.8095 12.998 17.5691 12.7517 18.2207 12.3047L18.4336 12.1484C19.4767 11.332 20.1992 9.98157 20.1992 8.40039ZM23.1836 8.89844C23.0328 11.3623 21.7688 13.5069 19.918 14.7773L19.4864 15.0527C18.4532 15.6574 17.2631 16 15.9981 16C14.7341 15.9997 13.5444 15.657 12.5117 15.0527L12.0801 14.7773C10.2287 13.507 8.96542 11.3627 8.81448 8.89844L8.79886 8.40039C8.79906 4.20343 12.022 0.801152 15.9981 0.800781L16.3692 0.810547C20.1733 1.01413 23.1991 4.3344 23.1992 8.40039L23.1836 8.89844Z" fill="currentColor"/>
</svg>
