<svg width="20" height="20" viewBox="0 0 20 20" fill="none" xmlns="http://www.w3.org/2000/svg">
<path d="M14.1406 1.2561C15.3597 1.27526 16.1012 1.35238 16.7029 1.65894C17.4082 2.0184 17.9816 2.59184 18.3411 3.29712C18.7498 4.09926 18.75 5.14972 18.75 7.24976V12.7502L18.7439 14.1406C18.7247 15.3597 18.6476 16.1012 18.3411 16.7029L18.197 16.9604C17.8368 17.5479 17.3202 18.0264 16.7029 18.3411L16.5491 18.4131C15.9741 18.6601 15.2582 18.7263 14.1406 18.7439L12.7502 18.75H7.24976L5.85938 18.7439C4.7418 18.7263 4.02593 18.6601 3.45093 18.4131L3.29712 18.3411C2.67976 18.0264 2.16321 17.5479 1.80298 16.9604L1.65894 16.7029C1.35238 16.1012 1.27526 15.3597 1.2561 14.1406L1.25 12.7502V7.24976C1.25 5.28086 1.25009 4.23494 1.58691 3.45093L1.65894 3.29712C1.97359 2.67976 2.45208 2.16321 3.03955 1.80298L3.29712 1.65894C3.89877 1.35238 4.64031 1.27526 5.85938 1.2561L7.24976 1.25H12.7502L14.1406 1.2561ZM7.24976 3.125C6.16917 3.125 5.47135 3.1268 4.94019 3.17017C4.43177 3.2117 4.24206 3.28162 4.14917 3.32886C3.79637 3.50862 3.50862 3.79637 3.32886 4.14917C3.28162 4.24206 3.2117 4.43177 3.17017 4.94019C3.1268 5.47135 3.125 6.16917 3.125 7.24976V12.7502C3.125 13.1375 3.12637 13.4755 3.12866 13.7744L4.04175 12.9065C4.30837 12.6355 4.65791 12.5002 5.00732 12.5C5.35695 12.5 5.70734 12.6354 5.97412 12.9065L7.5061 14.375L11.7712 10.4065C12.0379 10.1355 12.3874 10.0001 12.7368 10C13.0864 10 13.4368 10.1354 13.7036 10.4065L16.8701 13.6389C16.8716 13.3743 16.875 13.0801 16.875 12.7502V7.24976C16.875 6.16917 16.8732 5.47135 16.8298 4.94019C16.7986 4.55804 16.752 4.35559 16.7102 4.2395L16.6711 4.14917C16.5139 3.84049 16.2739 3.58225 15.9802 3.4021L15.8508 3.32886C15.7579 3.28162 15.5682 3.2117 15.0598 3.17017C14.5287 3.1268 13.8308 3.125 12.7502 3.125H7.24976ZM6.875 5C7.91053 5 8.75 5.83947 8.75 6.875C8.75 7.91053 7.91053 8.75 6.875 8.75C5.83947 8.75 5 7.91053 5 6.875C5 5.83947 5.83947 5 6.875 5Z" fill="currentColor"/>
</svg>
