<svg width="20" height="20" viewBox="0 0 20 20" fill="none" xmlns="http://www.w3.org/2000/svg">
<path d="M17.1875 9.375C17.7053 9.375 18.125 9.79473 18.125 10.3125V11.687C18.125 12.6338 18.1256 13.4009 18.075 14.021C18.0298 14.5732 17.9402 15.0726 17.7405 15.5383L17.6477 15.7361C17.2807 16.4563 16.7229 17.0589 16.0376 17.4792L15.7361 17.6477C15.2142 17.9136 14.6522 18.0234 14.021 18.075C13.4009 18.1256 12.6338 18.125 11.687 18.125H8.31299C7.36616 18.125 6.59914 18.1256 5.979 18.075C5.42677 18.0298 4.92735 17.9402 4.46167 17.7405L4.26392 17.6477C3.44077 17.2283 2.77173 16.5592 2.3523 15.7361C2.0864 15.2142 1.97662 14.6522 1.92505 14.021C1.87442 13.4009 1.875 12.6338 1.875 11.687V10.3125C1.875 9.79473 2.29473 9.375 2.8125 9.375C3.33027 9.375 3.75 9.79473 3.75 10.3125V11.687C3.75 12.6648 3.75099 13.3423 3.79395 13.8684C3.83604 14.3836 3.91345 14.6718 4.02222 14.8853C4.26188 15.3556 4.64443 15.7381 5.11475 15.9778L5.29175 16.0535C5.48673 16.1232 5.74543 16.1745 6.13159 16.2061C6.6577 16.249 7.33522 16.25 8.31299 16.25H11.687C12.6648 16.25 13.3423 16.249 13.8684 16.2061C14.3836 16.164 14.6718 16.0866 14.8853 15.9778L15.0574 15.8813C15.4489 15.6412 15.7681 15.2968 15.9778 14.8853L16.0535 14.7083C16.1232 14.5133 16.1745 14.2546 16.2061 13.8684C16.249 13.3423 16.25 12.6648 16.25 11.687V10.3125C16.25 9.79473 16.6697 9.375 17.1875 9.375ZM10 0C10.2486 1.89544e-05 10.487 0.0988612 10.6628 0.274658L14.7253 4.33716L14.79 4.40796C15.0904 4.77617 15.0685 5.3196 14.7253 5.66284C14.3821 6.00608 13.8387 6.02789 13.4705 5.72754L13.3997 5.66284L10.9375 3.20068V11.5625C10.9375 12.0802 10.5177 12.5 10 12.5C9.48223 12.5 9.0625 12.0803 9.0625 11.5625V3.20068L6.60034 5.66284C6.23424 6.02895 5.64078 6.02892 5.27466 5.66284C4.90854 5.29673 4.90854 4.70327 5.27466 4.33716L9.33716 0.274658L9.47998 0.157471C9.63284 0.0555809 9.81358 0 10 0Z" fill="currentColor"/>
</svg>
