<svg width="32" height="32" viewBox="0 0 32 32" fill="none" xmlns="http://www.w3.org/2000/svg">
<path d="M14.363 1.02679C15.0073 -0.342264 16.9927 -0.342264 17.637 1.02679L21.0027 8.17806C21.2653 8.73603 21.8049 9.12021 22.4275 9.19256L30.4073 10.1198C31.935 10.2973 32.5485 12.1479 31.419 13.1715L25.5194 18.5185C25.0591 18.9357 24.853 19.5573 24.9752 20.16L26.5412 27.8843C26.841 29.3631 25.2348 30.5068 23.8925 29.7704L16.8806 25.9237C16.3335 25.6236 15.6665 25.6236 15.1194 25.9237L8.10755 29.7704C6.76517 30.5068 5.15897 29.3631 5.45878 27.8843L7.02484 20.16C7.14703 19.5573 6.94094 18.9357 6.48063 18.5185L0.580975 13.1715C-0.548469 12.1479 0.0650477 10.2973 1.59272 10.1198L9.57249 9.19256C10.1951 9.12021 10.7347 8.73603 10.9973 8.17806L14.363 1.02679Z" fill="currentColor"/>
</svg>