<svg width="20" height="20" viewBox="0 0 20 20" fill="none" xmlns="http://www.w3.org/2000/svg">
<path d="M17.5 10.0049C17.5 6.2716 14.2109 3.125 10 3.125C5.78914 3.125 2.5 6.2716 2.5 10.0049C2.50007 11.1763 2.81941 12.2791 3.38501 13.2471L3.5498 13.5352C3.57718 13.5859 3.603 13.6377 3.62671 13.689L3.68896 13.8416L3.75732 14.0955C3.79033 14.2619 3.79832 14.4258 3.78174 14.5947L3.73901 14.8535C3.71514 14.9553 3.67834 15.0573 3.63892 15.1526L3.52173 15.4126C3.2126 16.0848 3.00788 16.533 2.8894 16.8628C2.83657 17.0099 2.81553 17.0983 2.8064 17.1436C2.81643 17.1579 2.82833 17.1689 2.84302 17.179C2.88795 17.1701 2.97824 17.1497 3.12866 17.0959C3.45937 16.9776 3.90813 16.773 4.5813 16.4648L4.93042 16.3049L5.2417 16.1682C5.3559 16.1226 5.47859 16.0805 5.60425 16.0571L5.75684 16.0352C5.90571 16.0193 6.04817 16.0235 6.20483 16.0461L6.39893 16.0864C6.59341 16.1398 6.78701 16.2247 6.94702 16.2903L7.2998 16.4246C8.13579 16.7208 9.04579 16.8835 10 16.8835C14.2107 16.8835 17.4998 13.738 17.5 10.0049ZM19.375 10.0049C19.3748 14.9058 15.1088 18.7585 10 18.7585C8.83136 18.7585 7.71013 18.5588 6.6748 18.1921L6.23657 18.0249C6.093 17.9661 6.00953 17.9324 5.94849 17.9102C5.9454 17.909 5.94267 17.9075 5.93994 17.9065L5.71167 18.0103L5.36133 18.1702C4.72114 18.4632 4.18486 18.7103 3.75977 18.8623C3.4231 18.9827 2.97696 19.1161 2.52319 19.0405L2.3291 18.9941C1.77062 18.8223 1.3173 18.4191 1.08032 17.8931L0.992432 17.6599C0.83186 17.1405 0.986465 16.6129 1.12427 16.2292C1.27676 15.8048 1.52503 15.269 1.81885 14.6301L1.9043 14.4373L1.90308 14.4336L1.76514 14.1931C1.03944 12.951 0.625073 11.5231 0.625 10.0049C0.625 5.10377 4.89105 1.25 10 1.25C15.1089 1.25 19.375 5.10377 19.375 10.0049Z" fill="currentColor"/>
</svg>
