<svg width="20" height="20" viewBox="0 0 20 20" fill="none" xmlns="http://www.w3.org/2000/svg">
<path d="M14.375 7.5C15.8475 7.5 17.2182 7.93619 18.2434 8.68774C19.2681 9.43917 20 10.5553 20 11.875V15.625C20 16.9447 19.2681 18.0608 18.2434 18.8123C17.2182 19.5638 15.8475 20 14.375 20C12.9025 20 11.5318 19.5638 10.5066 18.8123C9.48192 18.0608 8.75 16.9447 8.75 15.625V11.875C8.75 10.5553 9.48192 9.43917 10.5066 8.68774C11.5318 7.93619 12.9025 7.5 14.375 7.5ZM18.125 15.144C17.1137 15.8443 15.7921 16.25 14.375 16.25C12.9579 16.25 11.6363 15.8443 10.625 15.144V15.625C10.625 16.2038 10.9431 16.8071 11.615 17.2998C12.2863 17.792 13.2591 18.125 14.375 18.125C15.4909 18.125 16.4637 17.792 17.135 17.2998C17.8069 16.8071 18.125 16.2038 18.125 15.625V15.144ZM5.625 0C7.09749 0 8.46825 0.436195 9.49341 1.18774C10.5181 1.93917 11.25 3.05535 11.25 4.375C11.25 5.69465 10.5181 6.81083 9.49341 7.56226C8.46825 8.3138 7.09749 8.75 5.625 8.75C4.20793 8.75 2.88627 8.3443 1.875 7.64404V8.125C1.875 8.70383 2.19312 9.3071 2.86499 9.7998C3.5363 10.292 4.50905 10.625 5.625 10.625C6.46313 10.625 7.22005 10.4363 7.82959 10.1343C7.62111 10.6675 7.5 11.2498 7.5 11.875V12.2485C6.90886 12.4098 6.27762 12.5 5.625 12.5C4.20793 12.5 2.88627 12.0943 1.875 11.394V11.875C1.875 12.4538 2.19312 13.0571 2.86499 13.5498C3.5363 14.042 4.50905 14.375 5.625 14.375C6.31793 14.375 6.95538 14.2459 7.5 14.0308V15.625C7.5 15.7513 7.50635 15.8758 7.51587 15.9985C6.9203 16.1619 6.28294 16.25 5.625 16.25C4.15251 16.25 2.78175 15.8138 1.75659 15.0623C0.731918 14.3108 0 13.1947 0 11.875V4.375C0 3.05535 0.731918 1.93917 1.75659 1.18774C2.78175 0.436195 4.15251 0 5.625 0ZM14.375 9.375C13.2591 9.375 12.2863 9.70796 11.615 10.2002C10.9431 10.6929 10.625 11.2962 10.625 11.875C10.625 12.4538 10.9431 13.0571 11.615 13.5498C12.2863 14.042 13.2591 14.375 14.375 14.375C15.4909 14.375 16.4637 14.042 17.135 13.5498C17.8069 13.0571 18.125 12.4538 18.125 11.875C18.125 11.2962 17.8069 10.6929 17.135 10.2002C16.4637 9.70796 15.4909 9.375 14.375 9.375ZM5.625 1.875C4.50905 1.875 3.5363 2.20796 2.86499 2.7002C2.19312 3.1929 1.875 3.79617 1.875 4.375C1.875 4.95383 2.19312 5.5571 2.86499 6.0498C3.5363 6.54204 4.50905 6.875 5.625 6.875C6.74095 6.875 7.7137 6.54204 8.38501 6.0498C9.05688 5.5571 9.375 4.95383 9.375 4.375C9.375 3.79617 9.05688 3.1929 8.38501 2.7002C7.7137 2.20796 6.74095 1.875 5.625 1.875Z" fill="currentColor"/>
</svg>
