<svg width="20" height="20" viewBox="0 0 20 20" fill="none" xmlns="http://www.w3.org/2000/svg">
    <path d="M10 0C15.5228 0 20 4.47715 20 10C20 15.5228 15.5228 20 10 20C4.47715 20 0 15.5228 0 10C0 4.47715 4.47715 0 10 0ZM10 1.875C5.51269 1.875 1.875 5.51269 1.875 10C1.875 14.4873 5.51269 18.125 10 18.125C14.4873 18.125 18.125 14.4873 18.125 10C18.125 5.51269 14.4873 1.875 10 1.875ZM13.6304 5.0061C13.7821 4.99182 13.9424 5.00042 14.1003 5.05249C14.5009 5.18498 14.8165 5.50433 14.9487 5.90454C14.9989 6.05894 15.0085 6.21682 14.9939 6.37085C14.9796 6.52143 14.9424 6.66226 14.9072 6.77979L14.7876 7.12891C14.7405 7.25534 14.6869 7.39234 14.6289 7.53784L13.0457 11.4966L13.0396 11.5137L12.8784 11.8945C12.8229 12.0128 12.7624 12.1236 12.6892 12.2253L12.5879 12.3547C12.4812 12.4804 12.3593 12.5927 12.2253 12.6892L12.0667 12.7905C11.901 12.8843 11.7164 12.9586 11.5137 13.0396L7.53784 14.6289L7.12891 14.7876C7.00265 14.8347 6.88648 14.8755 6.78101 14.9072L6.58813 14.9585C6.51923 14.974 6.4462 14.9867 6.37085 14.9939C6.25532 15.0049 6.13478 15.0017 6.01685 14.978L5.89966 14.9475C5.54941 14.8316 5.26533 14.5761 5.11108 14.2456L5.05249 14.1003C5.00053 13.9425 4.99183 13.7819 5.0061 13.6304C5.01324 13.555 5.02595 13.4819 5.0415 13.4131L5.09277 13.2214C5.13037 13.0961 5.18067 12.9549 5.23926 12.8003L5.43823 12.2949L6.96167 8.48633C7.06889 8.21766 7.16378 7.97881 7.30957 7.77588C7.40625 7.64144 7.51918 7.51901 7.64526 7.41211L7.77588 7.31079C7.87782 7.23751 7.98812 7.17721 8.10669 7.12158L8.48633 6.96167L12.2949 5.43823C12.4758 5.36585 12.6445 5.29792 12.7991 5.23926L13.2202 5.09277C13.3387 5.05721 13.4799 5.02034 13.6304 5.0061ZM9.18335 8.70239H9.18091C9.03713 8.75977 8.96236 8.79031 8.90259 8.81836L8.87085 8.83301C8.85302 8.84583 8.83983 8.85967 8.83179 8.87085C8.8484 8.84773 8.84454 8.84676 8.81958 8.90015C8.79108 8.96112 8.76031 9.03699 8.70239 9.18213L7.29248 12.7075L10.8179 11.2988L10.8191 11.2976L11.0999 11.1816C11.1522 11.1571 11.1529 11.1518 11.1316 11.167C11.1426 11.1588 11.154 11.1463 11.1658 11.1304C11.1695 11.1231 11.1747 11.1121 11.1816 11.0974C11.2097 11.0377 11.2402 10.9629 11.2976 10.8191L11.2988 10.8167L11.3013 10.8081L11.3049 10.8008L12.7063 7.29248L9.18335 8.70239Z" fill="currentColor"/>
</svg>
