<svg width="20" height="20" viewBox="0 0 20 20" fill="none" xmlns="http://www.w3.org/2000/svg">
    <path d="M3.75 8.4375C4.61294 8.4375 5.3125 9.13706 5.3125 10C5.3125 10.8629 4.61294 11.5625 3.75 11.5625C2.88706 11.5625 2.1875 10.8629 2.1875 10C2.1875 9.13706 2.88706 8.4375 3.75 8.4375ZM10 8.4375C10.8629 8.4375 11.5625 9.13706 11.5625 10C11.5625 10.8629 10.8629 11.5625 10 11.5625C9.13705 11.5625 8.4375 10.8629 8.4375 10C8.4375 9.13706 9.13705 8.4375 10 8.4375ZM16.25 8.4375C17.1129 8.4375 17.8125 9.13706 17.8125 10C17.8125 10.8629 17.1129 11.5625 16.25 11.5625C15.3871 11.5625 14.6875 10.8629 14.6875 10C14.6875 9.13706 15.3871 8.4375 16.25 8.4375Z" fill="currentColor"/>
</svg>
