<svg width="21" height="20" viewBox="0 0 21 20" fill="none" xmlns="http://www.w3.org/2000/svg">
    <g clip-path="url(#clip0_102_21)">
        <path d="M20.5 10C20.5 11.61 19.36 12.95 17.85 13.28V13.37C19.36 13.7 20.5 15.04 20.5 16.65C20.5 18.5 19 20 17.15 20C15.54 20 14.2 18.86 13.87 17.35H13.78C13.45 18.86 12.11 20 10.5 20C8.89 20 7.55 18.86 7.22 17.35H7.13C6.8 18.86 5.46 20 3.85 20C2 20 0.5 18.5 0.5 16.65C0.5 15.04 1.64 13.7 3.15 13.37V13.28C1.64 12.95 0.5 11.61 0.5 10C0.5 8.39 1.64 7.05 3.15 6.72V6.63C1.64 6.3 0.5 4.96 0.5 3.35C0.5 1.5 2 0 3.85 0C5.46 0 6.8 1.14 7.13 2.65H7.22C7.55 1.14 8.89 0 10.5 0C12.11 0 13.45 1.14 13.78 2.65H13.87C14.2 1.14 15.54 0 17.15 0C19 0 20.5 1.5 20.5 3.35C20.5 4.96 19.36 6.3 17.85 6.63V6.72C19.36 7.05 20.5 8.39 20.5 10ZM5.9 4.6C5.46 4.6 5.1 4.96 5.1 5.4V14.6C5.1 15.04 5.46 15.4 5.9 15.4H15.1C15.54 15.4 15.9 15.04 15.9 14.6V5.4C15.9 4.96 15.54 4.6 15.1 4.6H5.9Z" fill="currentColor"/>
    </g>
    <defs>
        <clipPath id="clip0_102_21">
            <rect width="20" height="20" fill="white" transform="translate(0.5)"/>
        </clipPath>
    </defs>
</svg>
