<svg width="20" height="20" viewBox="0 0 20 20" fill="none" xmlns="http://www.w3.org/2000/svg">
<g clip-path="url(#clip0_208_2745)">
<path d="M12.5197 0.784912C13.3009 0.794078 13.7901 0.83016 14.2397 0.976562C14.7702 1.14942 15.2594 1.43236 15.674 1.80664C16.1424 2.22966 16.4777 2.81153 17.1474 3.97461L18.777 6.80664C19.4468 7.96998 19.7824 8.55153 19.9135 9.16992C20.0295 9.71711 20.0295 10.2829 19.9135 10.8301L19.8537 11.0608C19.6926 11.6024 19.3633 12.1752 18.777 13.1934L17.1474 16.0254L16.6994 16.7957C16.3009 17.4694 16.0252 17.8762 15.674 18.1934L15.5141 18.3289C15.1356 18.6361 14.7039 18.8722 14.2397 19.0234L14.0102 19.0881C13.6188 19.1815 13.1705 19.2075 12.5197 19.2151L11.631 19.2188H8.36931L7.48064 19.2151C6.82981 19.2074 6.38154 19.1815 5.99016 19.0881L5.76067 19.0234C5.29647 18.8722 4.86469 18.6361 4.48625 18.3289L4.32634 18.1934C3.97519 17.8762 3.69941 17.4694 3.30095 16.7957L2.85295 16.0254L1.22331 13.1934C0.637084 12.1752 0.307694 11.6024 0.146651 11.0608L0.0868368 10.8301C-0.0146327 10.3514 -0.0270827 9.85844 0.048995 9.37622L0.0868368 9.16992C0.18517 8.70608 0.39843 8.26282 0.781417 7.57935L1.22331 6.80664L2.85295 3.97461C3.43897 2.95682 3.76958 2.38452 4.15666 1.97388L4.32634 1.80664C4.68924 1.47899 5.10933 1.22119 5.56413 1.04614L5.76067 0.976562C6.21023 0.830129 6.69945 0.794082 7.48064 0.784912L8.36931 0.78125H11.631L12.5197 0.784912ZM8.36931 2.77222C7.26425 2.77222 6.82423 2.78445 6.57732 2.82227L6.37712 2.86865C6.17868 2.93332 5.99143 3.02915 5.82292 3.15186L5.66057 3.28369C5.52627 3.40497 5.39889 3.57179 5.03313 4.18701L4.57903 4.96826L2.94817 7.80029C2.39612 8.75908 2.18634 9.1485 2.09489 9.38354L2.03386 9.58252C1.97557 9.85753 1.97557 10.1425 2.03386 10.4175L2.09489 10.6165C2.18634 10.8515 2.39612 11.2409 2.94817 12.1997L4.57903 15.0317L5.03313 15.813C5.39889 16.4282 5.52627 16.595 5.66057 16.7163L5.82292 16.8481C5.99143 16.9708 6.17868 17.0667 6.37712 17.1313L6.57732 17.1777C6.82423 17.2156 7.26425 17.2278 8.36931 17.2278H11.631C13.1042 17.2278 13.3955 17.2055 13.6232 17.1313L13.8173 17.0557C14.0074 16.9708 14.1841 16.8568 14.3398 16.7163L14.4802 16.5649C14.637 16.3687 14.8683 15.9922 15.4213 15.0317L17.0522 12.1997L17.4989 11.4148C17.8473 10.7897 17.9287 10.5956 17.9665 10.4175L17.9982 10.21C18.0129 10.0703 18.0129 9.92966 17.9982 9.79004L17.9665 9.58252C17.9287 9.40442 17.8473 9.21029 17.4989 8.58521L17.0522 7.80029L15.4213 4.96826C14.8683 4.00777 14.637 3.63133 14.4802 3.43506L14.3398 3.28369C14.1841 3.1432 14.0074 3.02921 13.8173 2.94434L13.6232 2.86865C13.3955 2.79453 13.1042 2.77222 11.631 2.77222H8.36931ZM10.0002 5.625C12.4164 5.625 14.3752 7.58375 14.3752 10C14.3752 12.4162 12.4164 14.375 10.0002 14.375C7.584 14.3749 5.62517 12.4162 5.62517 10C5.62517 7.58381 7.584 5.62509 10.0002 5.625ZM10.0002 7.5C8.61954 7.50009 7.50017 8.61935 7.50017 10C7.50017 11.3807 8.61954 12.4999 10.0002 12.5C11.3809 12.5 12.5002 11.3807 12.5002 10C12.5002 8.61929 11.3809 7.5 10.0002 7.5Z" fill="currentColor"/>
</g>
</svg>
