<svg width="20" height="20" viewBox="0 0 20 20" fill="none" xmlns="http://www.w3.org/2000/svg">
<path d="M10 0.625C15.1777 0.625 19.375 4.82233 19.375 10C19.375 15.1777 15.1777 19.375 10 19.375C4.82233 19.375 0.625 15.1777 0.625 10C0.625 4.82233 4.82233 0.625 10 0.625ZM7.52441 10.9375C7.62578 12.9182 8.04143 14.6265 8.60596 15.8362C9.3288 17.3851 9.95307 17.5 10 17.5C10.0469 17.5 10.6712 17.3851 11.394 15.8362C11.9586 14.6265 12.3742 12.9182 12.4756 10.9375H7.52441ZM2.56104 10.9375C2.89531 13.6171 4.64081 15.8567 7.03247 16.8884C6.26761 15.3746 5.75566 13.2833 5.64697 10.9375H2.56104ZM14.353 10.9375C14.2443 13.2835 13.7313 15.3746 12.9663 16.8884C15.3585 15.8569 17.1046 13.6175 17.439 10.9375H14.353ZM7.03247 3.11035C4.64059 4.14197 2.89534 6.38271 2.56104 9.0625H5.64697C5.75569 6.71624 6.26734 4.62424 7.03247 3.11035ZM10 2.5C9.95307 2.5 9.3288 2.61495 8.60596 4.16382C8.04143 5.37352 7.62578 7.08179 7.52441 9.0625H12.4756C12.3742 7.08179 11.9586 5.37352 11.394 4.16382C10.6712 2.61495 10.0469 2.5 10 2.5ZM12.9663 3.11035C13.7316 4.62428 14.2443 6.71598 14.353 9.0625H17.439C17.1046 6.38233 15.3587 4.14177 12.9663 3.11035Z" fill="currentColor"/>
</svg>
