<svg width="32" height="32" viewBox="0 0 32 32" fill="none" xmlns="http://www.w3.org/2000/svg">
<path d="M9.00134 3.00001C13 3.00001 15.5 6 15.9996 8C16.5 6 19 3 22.9986 3C27.9402 3 31.298 7.25908 31.8788 11.2737C32.753 16.6 28.9828 22.9642 17.6853 30.3846L17.6212 30.427C17.3949 30.578 17.0195 30.8284 16.5759 30.9334C16.3881 30.9778 16.1941 31 16 31C15.8059 31 15.6119 30.9778 15.4241 30.9334C14.9805 30.8284 14.6051 30.578 14.3788 30.427L14.3147 30.3846C3.01714 22.9642 -0.753096 16.6 0.121107 11.2738C0.701954 7.25908 4.0599 3.00001 9.00134 3.00001Z" fill="currentColor"/>
</svg>
