<svg width="20" height="20" viewBox="0 0 20 20" fill="none" xmlns="http://www.w3.org/2000/svg">
    <path d="M5.89731 18.75H5.85092L4.58993 18.739L4.32504 18.7231C4.08366 18.7034 3.80758 18.6658 3.51816 18.5767L3.22519 18.4692L3.05551 18.3899C2.57933 18.1473 2.17143 17.7936 1.86411 17.3621L1.73838 17.1729L1.61142 16.9446C1.48133 16.6892 1.40154 16.4359 1.35142 16.1975L1.30991 15.9656L1.27817 15.6763L1.25254 15.1294L1.2501 14.541V10.3979C1.24969 10.256 1.24908 10.0419 1.28184 9.80591L1.327 9.56421L1.38682 9.35303C1.43747 9.19721 1.50241 9.04608 1.57969 8.90137L1.66147 8.75854L1.80674 8.54614C1.87748 8.45332 1.94951 8.36955 2.0167 8.29712L2.19614 8.11401L8.191 2.11914L8.34237 1.97021L8.52669 1.80176L8.65853 1.69678C8.77289 1.61126 8.92209 1.51566 9.10531 1.43555L9.2994 1.36108L9.47152 1.31226C9.64523 1.27063 9.82269 1.25001 10.0001 1.25L10.2662 1.26587C10.3543 1.27631 10.442 1.29149 10.5286 1.31226L10.7008 1.36108C10.9754 1.45034 11.1892 1.58278 11.3416 1.69678L11.4735 1.80176C11.5369 1.85561 11.6001 1.91466 11.6578 1.97021L11.8092 2.11914L17.804 8.11401C17.903 8.2124 18.0519 8.3605 18.1934 8.54614L18.3387 8.75854C18.4532 8.94541 18.5457 9.1451 18.6133 9.35303L18.6732 9.56421C18.7516 9.89081 18.7506 10.2087 18.7501 10.3979V14.541L18.7476 15.1294L18.722 15.6763L18.6903 15.9656L18.6487 16.1975C18.5986 16.4359 18.5188 16.6892 18.3887 16.9446L18.2618 17.1729L18.1361 17.3621C17.8287 17.7935 17.4208 18.1473 16.9446 18.3899L16.775 18.4692L16.482 18.5767C16.1926 18.6658 15.9165 18.7034 15.6751 18.7231L15.4114 18.739L14.1492 18.75H14.1041L13.7501 18.7476L13.4303 18.7329C13.2556 18.7186 13.059 18.6899 12.8577 18.6182L12.6551 18.5303L12.5159 18.4534C12.2408 18.2845 12.0108 18.0507 11.8446 17.7734L11.7762 17.6526L11.6908 17.45C11.655 17.3494 11.6294 17.2504 11.6114 17.1545L11.576 16.8787C11.5674 16.7732 11.5623 16.6581 11.5601 16.5369L11.5589 16.1597V13.4375C11.5613 12.5753 10.8623 11.875 10.0001 11.875C9.13789 11.875 8.44003 12.5753 8.44247 13.4375V16.1597L8.44002 16.5369C8.4379 16.6581 8.43398 16.7732 8.42538 16.8787L8.38876 17.1545C8.3708 17.2503 8.34635 17.3495 8.31063 17.45L8.22396 17.6526L8.15682 17.7734C7.99058 18.0509 7.75959 18.2844 7.48422 18.4534L7.34506 18.5303L7.14242 18.6182C6.94142 18.6898 6.74565 18.7186 6.57113 18.7329L6.25009 18.7476L5.89731 18.75ZM16.8702 10.1562C16.8659 10.0911 16.8575 10.044 16.8507 10.0122L16.8214 9.90967C16.8027 9.85712 16.7795 9.80632 16.7518 9.7583L16.6871 9.66309C16.6635 9.63351 16.6381 9.60408 16.609 9.57275L16.482 9.44336L16.4625 9.42505L16.46 9.42139L10.4835 3.44604L10.3443 3.30933C10.2998 3.26671 10.275 3.24384 10.2601 3.2312L10.2186 3.19824L10.1246 3.14575L10.0819 3.13477C10.054 3.12881 10.0267 3.125 10.0001 3.125C9.97309 3.12501 9.94535 3.12862 9.91707 3.13477L9.87435 3.14575C9.84683 3.15533 9.81774 3.17189 9.78524 3.1958L9.73397 3.23608C9.71863 3.24946 9.69401 3.27037 9.65462 3.30811L9.65584 3.30933L9.51546 3.44482L9.51668 3.44604L3.54013 9.42139L3.53769 9.42505L3.51816 9.44336C3.42511 9.53588 3.36064 9.6019 3.30698 9.67041L3.25205 9.7522C3.22275 9.80202 3.19827 9.85487 3.1788 9.90967L3.14829 10.0122C3.14145 10.044 3.13426 10.0913 3.12998 10.1562C3.12517 10.2291 3.12482 10.2984 3.12509 10.3931V14.5325L3.12753 15.0977L3.14585 15.52L3.16782 15.7129C3.19049 15.8615 3.22583 15.98 3.27646 16.0828L3.34604 16.2061C3.48062 16.4199 3.66909 16.5943 3.89291 16.7114L3.9747 16.7493C4.10845 16.8047 4.26589 16.8369 4.47763 16.8542L4.67782 16.8652C4.69836 16.8655 4.74872 16.8667 4.83652 16.8677C4.94787 16.8689 5.0891 16.8702 5.23202 16.8713C5.52213 16.8736 5.8041 16.875 5.85214 16.875H5.89731C6.15478 16.875 6.30962 16.8729 6.41854 16.864L6.50399 16.8518L6.51132 16.8481C6.5223 16.84 6.53193 16.8299 6.54061 16.8176L6.54428 16.8091C6.54692 16.7949 6.55296 16.7691 6.55648 16.7261L6.56503 16.5039L6.56747 16.1597V13.4375C6.56498 11.54 8.10217 10 10.0001 10L10.3516 10.0183C12.0843 10.1945 13.4362 11.6586 13.4339 13.4375V16.1597C13.4339 16.4419 13.434 16.6077 13.4437 16.7261L13.4547 16.8091L13.4583 16.8176C13.4674 16.8306 13.4784 16.841 13.4901 16.8494L13.4949 16.8518L13.4966 16.8521C13.5104 16.8549 13.5375 16.8603 13.5828 16.864C13.6918 16.8729 13.8462 16.875 14.1041 16.875H14.148C14.1961 16.875 14.478 16.8736 14.7681 16.8713C14.9111 16.8702 15.0523 16.8689 15.1636 16.8677C15.2495 16.8667 15.2998 16.8656 15.3211 16.8652L15.5225 16.8542L15.8106 16.8152C15.8899 16.7985 15.9596 16.776 16.0242 16.7493L16.106 16.7114C16.3301 16.5944 16.5181 16.4199 16.6529 16.2061L16.7225 16.0828C16.7732 15.9799 16.8084 15.8617 16.8311 15.7129L16.8543 15.5029C16.863 15.3894 16.8699 15.2539 16.8726 15.0977L16.8751 14.541V10.3931L16.8702 10.1562Z" fill="currentColor"/>
</svg>
