<svg width="16" height="16" viewBox="0 0 16 16" fill="none" xmlns="http://www.w3.org/2000/svg">
    <path d="M3.96737 15L3.93094 15C3.84023 15 3.75636 14.9944 3.67144 14.9909L3.46028 14.9787C3.20273 14.9577 2.89592 14.9105 2.57998 14.7752L2.44402 14.7121C2.00869 14.4903 1.64461 14.1526 1.39053 13.7384L1.28875 13.5561C1.15 13.2838 1.08298 13.0142 1.04798 12.7722L1.02216 12.5406C1.01107 12.4048 1.00504 12.257 1.00241 12.1038L1.00013 11.6329V8.33875L1.00008 8.31847C0.999646 8.16705 0.998921 7.91271 1.06165 7.65136L1.1095 7.48274C1.16361 7.31625 1.23733 7.15612 1.32901 7.00651L1.44522 6.83713C1.55848 6.6885 1.67738 6.57027 1.75657 6.49152L1.77182 6.47634L6.55238 1.69575L6.6739 1.5765C6.72013 1.532 6.77044 1.48444 6.82126 1.4413L6.92683 1.35699C7.04879 1.26579 7.21978 1.16027 7.43952 1.08887L7.577 1.05013C7.71606 1.01679 7.85806 1 8.00006 1C8.14207 1 8.28407 1.01679 8.42313 1.05013L8.56061 1.08887C8.78035 1.16027 8.95134 1.26579 9.0733 1.35699L9.17887 1.4413C9.22969 1.48444 9.28 1.532 9.32623 1.5765L9.44775 1.69575L14.2283 6.47634L14.2436 6.49152C14.3228 6.57027 14.4417 6.6885 14.5549 6.83713L14.6711 7.00651C14.7628 7.15612 14.8365 7.31625 14.8906 7.48274L14.9385 7.65136C15.0012 7.91271 15.0005 8.16705 15.0001 8.31847L15 8.33875V11.6329L14.9977 12.1038C14.9951 12.257 14.9891 12.4048 14.978 12.5406L14.9521 12.7722C14.9171 13.0142 14.8501 13.2838 14.7114 13.5561L14.6096 13.7384C14.3555 14.1526 13.9914 14.4903 13.5561 14.7121L13.4202 14.7752C13.1042 14.9105 12.7974 14.9577 12.5398 14.9787L12.3287 14.9909C12.2438 14.9944 12.1599 15 12.0692 15L12.0328 15C11.8382 15 11.6523 14.9993 11.4937 14.9863C11.3072 14.9711 11.0905 14.9349 10.8739 14.8245L10.763 14.763C10.5112 14.6086 10.3061 14.3866 10.1713 14.122L10.1022 13.9602C10.0449 13.7993 10.0217 13.6427 10.0103 13.5029C9.99652 13.3345 9.99656 13.1352 9.9966 12.9276L9.9966 10.25C9.99855 9.28407 9.21605 8.5 8.25013 8.5H7.75C6.78407 8.5 6.00158 9.28407 6.00353 10.25L6.00353 12.9276C6.00357 13.1352 6.00361 13.3345 5.98986 13.5029C5.97843 13.6427 5.95524 13.7993 5.89795 13.9602L5.82883 14.122C5.69401 14.3866 5.48888 14.6086 5.23715 14.763L5.12626 14.8245C4.90961 14.9349 4.69291 14.9711 4.50647 14.9863C4.3478 14.9993 4.1619 15 3.96737 15Z" fill="currentColor"/>
</svg>
