<svg width="16" height="16" viewBox="0 0 16 16" fill="none" xmlns="http://www.w3.org/2000/svg">
    <path d="M8.00025 9.2C8.80132 9.19978 9.62677 9.25197 10.3487 9.36563C10.592 9.40393 10.8236 9.44896 11.0385 9.50156C12.1669 9.77777 13.2513 10.4496 13.9557 11.2602C14.6159 12.0198 15.2198 13.288 14.4143 14.45C13.7741 15.3735 12.7281 15.7131 11.6956 15.8617C10.7272 16.0011 9.54174 16.0007 8.27447 16H7.72603C6.45876 16.0007 5.27331 16.0011 4.30493 15.8617C3.27238 15.7131 2.22643 15.3735 1.58618 14.45C0.780716 13.2881 1.38467 12.0198 2.04477 11.2602C2.74919 10.4496 3.8352 9.77779 4.96353 9.50156C5.17817 9.44938 5.40954 9.40456 5.65259 9.36641C6.37371 9.25325 7.199 9.20024 8.00025 9.2Z" fill="currentColor"/>
    <path d="M11.6003 4.2C11.6003 2.10132 9.98848 0.400002 8.00025 0.400002C6.01206 0.400042 4.40025 2.10134 4.40025 4.2C4.40025 5.53587 5.05339 6.7107 6.04087 7.38828C6.60453 7.77496 7.27795 7.99987 8.00025 8C8.72311 8 9.39645 7.77538 9.96041 7.38828C10.9476 6.71064 11.6003 5.53561 11.6003 4.2Z" fill="currentColor"/>
</svg>
