<svg width="20" height="20" viewBox="0 0 20 20" fill="none" xmlns="http://www.w3.org/2000/svg">
<path d="M8.97733 0.641989C9.38004 -0.213671 10.6205 -0.213671 11.0232 0.641989L13.1265 5.11098C13.2906 5.45972 13.6285 5.70053 14.0176 5.74575L19.0054 6.32436C19.9597 6.43566 20.3432 7.59263 19.6377 8.23232L15.95 11.5734C15.6623 11.8341 15.533 12.2233 15.6094 12.6L16.5884 17.4279C16.7639 18.2943 15.8927 18.9765 15.0918 18.6791L14.9331 18.6059L10.5508 16.2023C10.2089 16.0147 9.79168 16.0147 9.44974 16.2023L5.06742 18.6059L4.90872 18.6791C4.10785 18.9765 3.23667 18.2943 3.41214 17.4279L4.39115 12.6C4.458 12.2703 4.36723 11.9314 4.15067 11.6771L4.05057 11.5734L0.362826 8.23232C-0.342684 7.59263 0.0408247 6.43566 0.99515 6.32436L5.98294 5.74575C6.32349 5.70618 6.62467 5.517 6.80448 5.23672L6.87406 5.11098L8.97733 0.641989ZM8.56961 5.90932C8.15171 6.79726 7.33116 7.40858 6.38944 7.57925L6.19901 7.60732L2.88968 7.99184L5.31034 10.1842L5.4495 10.3197C6.07869 10.9692 6.38301 11.8732 6.26126 12.7782L6.2283 12.9723L5.57523 16.1876L8.54764 14.558L8.71976 14.4713C9.5303 14.0918 10.4703 14.0918 11.2808 14.4713L11.4529 14.558L14.4241 16.1876L13.7723 12.9723C13.5629 11.9393 13.9187 10.8835 14.6902 10.1842L17.1097 7.99184L13.8015 7.60732C12.845 7.49617 11.9893 6.93419 11.5188 6.08388L11.4309 5.90932L10.0003 2.87099L8.56961 5.90932Z" fill="currentColor"/>
</svg>
    