<svg width="20" height="20" viewBox="0 0 20 20" fill="none" xmlns="http://www.w3.org/2000/svg">
<path d="M14.7206 3.95999C15.0888 3.6596 15.6322 3.68143 15.9755 4.02468C16.3187 4.36794 16.3406 4.91134 16.0402 5.27957L15.9755 5.35037L11.3258 10L15.9755 14.6497L16.0402 14.7205C16.3406 15.0887 16.3187 15.6321 15.9755 15.9754C15.6322 16.3186 15.0888 16.3405 14.7206 16.0401L14.6498 15.9754L10.0001 11.3257L5.35049 15.9754C4.98437 16.3415 4.39092 16.3415 4.0248 15.9754C3.65869 15.6093 3.65869 15.0158 4.0248 14.6497L8.67446 10L4.0248 5.35037L3.96011 5.27957C3.65972 4.91134 3.68155 4.36794 4.0248 4.02468C4.36806 3.68143 4.91146 3.6596 5.27969 3.95999L5.35049 4.02468L10.0001 8.67434L14.6498 4.02468L14.7206 3.95999Z" fill="currentColor"/>
</svg>
